<svg width="40" height="32" viewBox="0 0 40 32" fill="none" xmlns="http://www.w3.org/2000/svg">
<path d="M5.5625 24.9375C4.625 24.6875 4 23.875 4 22.9375V2.5C4 1.125 5.0625 0.0625 6.4375 0.0625H6.5C6.6875 0.0625 7.3125 0.125 20 2.125C32.625 0.125 33.25 0 33.4375 0L33.5 0.0625C34.875 0.0625 36 1.125 36 2.5V22.9375C36 23.875 35.3125 24.6875 34.375 24.9375L20.8125 27.9375C20.5625 28 20.25 28 20 28C19.6875 28 19.375 28 19.125 27.9375L5.5625 24.9375ZM21 4V25.875L33.9375 22.9375L34 2.5C34 2.1875 33.75 2.0625 33.5 2.0625C33.1875 2.0625 21 4 21 4ZM6 2.5V22.9375L19 25.875V4C19 4 6.75 2.0625 6.4375 2.0625C6.25 2.0625 6.125 2.125 6.125 2.1875C6.0625 2.25 6 2.3125 6 2.5ZM39 2C39.5 2 40 2.5 40 3V24C40 26.375 38.25 28.4375 35.9375 28.9375L20.1875 32C20.125 32 20.0625 32 20 32C19.875 32 19.8125 32 19.75 32L4 28.9375C1.6875 28.4375 0 26.375 0 24V3C0 2.5 0.4375 2 1 2C1.5 2 2 2.5 2 3V24C2 25.4375 3 26.6875 4.375 26.9375L20 30L35.5625 26.9375C36.9375 26.6875 38 25.4375 38 24V3C38 2.5 38.4375 2 39 2Z" fill="white"/>
</svg>
