<svg width="37" height="33" viewBox="0 0 37 33" fill="none" xmlns="http://www.w3.org/2000/svg">
<path d="M11.9375 2.0625C10.0625 1.9375 8.5 3.4375 8.5 5.3125C8.5 5.375 8.5 5.5 8.5 5.5625C7.0625 5.9375 6 7.25 6 8.8125C6 9.0625 6.0625 9.375 6.125 9.625C4.625 9.9375 3.5 11.25 3.5 12.8125C3.5 13.5 3.6875 14.125 4 14.625C2.8125 15.3125 2 16.625 2 18.125C2 19.8125 3 21.25 4.5 21.8125C4 22.625 3.8125 23.625 4.125 24.6875C4.4375 25.6875 5.25 26.5 6.25 26.875C7.25 27.3125 8.25 27.1875 9.0625 26.75C9 26.875 9 27 9 27.125C9 28.5 9.9375 29.6875 11.1875 30.0625C11.6875 30.1875 12 30.5625 12 31C12 31.6875 11.375 32.1875 10.75 32C9.25 31.625 8 30.5625 7.4375 29.125C4.4375 29.125 2 26.625 2 23.625C2 23.3125 2 23 2.0625 22.6875C0.75 21.5625 0 19.875 0 18.125C0 16.5625 0.5625 15.125 1.625 14C1.5 13.625 1.5 13.25 1.5 12.8125C1.5 10.9375 2.5 9.25 4 8.3125C4.125 6.5625 5.125 5.0625 6.625 4.1875C7.125 1.8125 9.25 0 11.75 0C13.5 0 15.0625 0.875 16.0625 2.1875C17 0.875 18.5625 0 20.3125 0C22.8125 0 24.9375 1.8125 25.4375 4.1875C27.0625 5.125 28.0625 6.875 28.0625 8.8125C28.0625 8.8125 28.0625 8.8125 28.0625 8.875C29.125 9.5 29.9375 10.5625 30.3125 11.8125C30.5 12.4375 30.0625 13.0625 29.375 13.0625C28.9375 13.0625 28.5625 12.8125 28.4375 12.375C28.0625 11.1875 27.0625 10.3125 25.8125 10.125C25.9375 9.6875 26.0625 9.25 26.0625 8.8125C26.0625 7.25 25 5.9375 23.5 5.5625C23.5625 5.5 23.5625 5.375 23.5625 5.3125C23.5625 3.4375 22 1.9375 20.125 2.0625C18.375 2.125 17.0625 3.75 17.0625 5.5V18.125C17.0625 18.625 16.5625 19.125 16 19.125C15.5 19.125 15 18.625 15 18.125V5.5C15 3.75 13.6875 2.125 11.9375 2.0625ZM35.6875 21.3125C36.0625 21.6875 36.0625 22.375 35.625 22.75L29.625 28.75C29.4375 28.9375 29.125 29 28.9375 29C28.6875 29 28.4375 28.9375 28.25 28.75C27.875 28.375 27.875 27.6875 28.25 27.3125L32.5625 23H20C18.3125 23 17 24.375 17 26V31C17 31.5625 16.5 32 16 32C15.4375 32 14.9375 31.5625 14.9375 31L15 26C15 23.25 17.1875 21 20 21H32.5625L28.25 16.75C27.875 16.375 27.875 15.6875 28.25 15.3125C28.625 14.9375 29.3125 14.9375 29.6875 15.3125L35.6875 21.3125Z" fill="white"/>
</svg>
