<svg width="14" height="18" viewBox="0 0 14 18" fill="none" xmlns="http://www.w3.org/2000/svg">
<path d="M7.875 4.5C7.875 5.13281 8.36719 5.625 9 5.625H13.5V16.3125C13.5 17.2617 12.7266 18 11.8125 18H1.6875C0.738281 18 0 17.2617 0 16.3125V1.6875C0 0.773438 0.738281 0 1.6875 0H7.875V4.5ZM9.87891 8.4375C9.66797 8.4375 9.52734 8.57812 9.45703 8.78906L8.64844 12.375L7.66406 8.75391C7.59375 8.57812 7.45312 8.4375 7.24219 8.4375H6.22266C6.01172 8.4375 5.87109 8.57812 5.80078 8.75391L4.81641 12.375L4.00781 8.78906C3.9375 8.57812 3.79688 8.4375 3.58594 8.4375H2.77734C2.49609 8.4375 2.28516 8.71875 2.35547 8.96484L3.83203 15.4336C3.90234 15.6445 4.04297 15.75 4.25391 15.75H5.27344C5.48438 15.75 5.625 15.6445 5.69531 15.4336L6.75 11.6016L7.76953 15.4688C7.83984 15.6445 7.98047 15.75 8.19141 15.75H9.21094C9.42188 15.75 9.5625 15.6445 9.63281 15.4336L11.1094 8.96484C11.1797 8.71875 10.9688 8.4375 10.6875 8.4375H9.87891ZM9 0L13.5 4.5H9V0Z" fill="#0249D7"/>
</svg>
