<svg width="14" height="18" viewBox="0 0 14 18" fill="none" xmlns="http://www.w3.org/2000/svg">
<path d="M3.09375 10.6875H2.8125V9H3.09375C3.55078 9 3.9375 9.38672 3.9375 9.84375C3.9375 10.3359 3.55078 10.6875 3.09375 10.6875ZM6.75 9H7.03125C7.3125 9 7.59375 9.28125 7.59375 9.5625V11.8125C7.59375 12.1289 7.3125 12.375 7.03125 12.375H6.75V9ZM7.875 0V4.5C7.875 5.13281 8.36719 5.625 9 5.625H13.5V15.75C13.5 17.0156 12.4805 18 11.25 18H2.25C0.984375 18 0 17.0156 0 15.75V2.25C0 1.01953 0.984375 0 2.25 0H7.875ZM2.25 7.875C1.93359 7.875 1.6875 8.15625 1.6875 8.4375V12.9375C1.6875 13.2539 1.93359 13.5 2.25 13.5C2.53125 13.5 2.8125 13.2539 2.8125 12.9375V11.8125H3.09375C4.14844 11.8125 5.0625 10.9336 5.0625 9.84375C5.0625 8.78906 4.14844 7.875 3.09375 7.875H2.25ZM5.625 12.9375C5.625 13.2539 5.87109 13.5 6.1875 13.5H7.03125C7.94531 13.5 8.71875 12.7617 8.71875 11.8125V9.5625C8.71875 8.64844 7.94531 7.875 7.03125 7.875H6.1875C5.87109 7.875 5.625 8.15625 5.625 8.4375V12.9375ZM10.125 7.875C9.80859 7.875 9.5625 8.15625 9.5625 8.4375V12.9375C9.5625 13.2539 9.80859 13.5 10.125 13.5C10.4062 13.5 10.6875 13.2539 10.6875 12.9375V11.25H11.8125C12.0938 11.25 12.375 11.0039 12.375 10.6875C12.375 10.4062 12.0938 10.125 11.8125 10.125H10.6875V9H11.8125C12.0938 9 12.375 8.75391 12.375 8.4375C12.375 8.15625 12.0938 7.875 11.8125 7.875H10.125ZM9 0L13.5 4.5H9V0Z" fill="#FF4900"/>
</svg>
