<svg width="41" height="32" viewBox="0 0 41 32" fill="none" xmlns="http://www.w3.org/2000/svg">
<path d="M39.6875 30.3125C40.0625 30.6875 40.0625 31.375 39.6875 31.75C39.5 31.9375 39.25 32 39 32C38.6875 32 38.4375 31.9375 38.25 31.75L32.875 26.3125C31.5 27.375 29.8125 28 27.9375 28C23.5625 28 19.9375 24.4375 19.9375 20C19.9375 15.625 23.5625 12 27.9375 12C32.375 12 35.9375 15.625 35.9375 20C35.9375 21.875 35.3125 23.5625 34.25 24.9375L39.6875 30.3125ZM28 26C31.25 26 34 23.3125 34 20C34 16.75 31.25 14 28 14C24.6875 14 22 16.75 22 20C22 23.3125 24.6875 26 28 26ZM19 14H4C2.875 14 2 14.9375 2 16V23C2 23.625 1.4375 24.125 0.8125 24C0.3125 23.9375 0 23.5 0 23V16C0 13.8125 1.75 12 4 12V4C4 1.8125 5.75 0 8 0H23.5625C24.0625 0 24.5625 0.25 24.9375 0.625L27.375 3C27.75 3.375 28 3.9375 28 4.4375V9C28 9.5625 27.5 10 27 10C26.4375 10 26 9.5625 26 9V4.4375L23.5625 2H8C6.875 2 6 2.9375 6 4V12H19C19.5 12 20 12.5 20 13C20 13.5625 19.5 14 19 14ZM25 30C25.5 30 26 30.5 26 31C26 31.5625 25.5 32 25 32H6C4.875 32 4 31.125 4 30V22C4 20.9375 4.875 20 6 20H17C17.5 20 18 20.5 18 21C18 21.5625 17.5 22 17 22H6V30H25Z" fill="white"/>
</svg>
